<?xml version="1.0" encoding="UTF-8"?>
<svg enable-background="new 0 0 123.9 120.1" version="1.1" viewBox="0 0 123.9 120.1" xmlns="http://www.w3.org/2000/svg">
 <style type="text/css">.st0{fill:#494547;} .st1{fill:#FFFFFF;}</style>
 <path class="st0" d="m61.8 34.5c-14.4 0-26 11.6-26 26s11.6 26 26 26 26-11.6 26-26-11.6-26-26-26z"/>
 <path class="st1" d="m73 63.9c-1.5 4.9-3 9.8-4.4 14.7-0.5 1.6-1.6 2.5-3.1 2.8-0.5 0.1-1.1 0.1-1.6-0.1-5-1.5-10-3-15-4.6-1-0.3-1.7-1-2.2-1.9-0.4-0.8-0.6-1.6-0.4-2.4 0-0.2 0.1-0.4 0.1-0.5 3-9.8 6-19.7 8.9-29.5 0.6-1.9 2.4-2.8 3.7-2.8 0.4 0 0.7 0.1 1.1 0.2 2.4 0.7 4.8 1.4 7.2 2.2 2.5 0.8 5.1 1.5 7.6 2.3 1.6 0.5 2.7 1.8 2.8 3.5 0 0.5 0 1-0.2 1.5-1.5 4.8-3 9.7-4.5 14.6zm-19.4-5.9c-1 3.3-2 6.5-3 9.8 0 0.1-0.1 0.3-0.1 0.4-0.1 0.5 0.1 1 0.6 1.2 4.9 1.5 9.9 3 14.8 4.5 0.2 0.1 0.4 0.1 0.6 0 0.3-0.1 0.5-0.4 0.6-0.7 2-6.7 4.1-13.5 6.1-20.2v-0.6c-0.1-0.4-0.4-0.6-0.7-0.7-4.9-1.5-9.7-2.9-14.6-4.4h-0.5c-0.4 0.1-0.6 0.3-0.8 0.7-0.9 3.3-2 6.7-3 10zm1.6 16.6c-0.4 1.3 0.3 2.6 1.6 3s2.6-0.3 3-1.6-0.3-2.6-1.6-3-2.7 0.3-3 1.6zm10.9-27.9c0.7 0.2 1.5 0.4 2.2 0.7 0.1 0 0.2 0 0.2 0.1 0.2 0 0.3 0 0.4-0.2 0.2-0.4 0.1-0.6-0.3-0.8h-0.1c-1.5-0.4-2.9-0.9-4.4-1.3-0.1 0-0.2 0-0.3-0.1-0.2 0-0.3 0-0.4 0.2-0.2 0.4-0.1 0.7 0.3 0.8h0.1c0.9 0.1 1.6 0.4 2.3 0.6z"/>
</svg>
